<svg width="32" height="32" viewBox="0 0 32 32" fill="none" xmlns="http://www.w3.org/2000/svg">
<path d="M16.6847 3.53922C16.4958 3.37131 16.2519 3.27856 15.9991 3.27856C15.7464 3.27856 15.5024 3.37131 15.3135 3.53922C14.3305 4.41028 13.5466 5.48271 13.0148 6.68365C12.4831 7.8846 12.2161 9.18592 12.2319 10.4992C12.2335 10.6368 12.2705 10.7717 12.3395 10.8909C12.4085 11.01 12.507 11.1093 12.6255 11.1792C13.6624 11.7924 14.5995 12.5601 15.4047 13.456C15.4797 13.5393 15.5714 13.6059 15.6738 13.6515C15.7762 13.697 15.887 13.7206 15.9991 13.7206C16.1112 13.7206 16.222 13.697 16.3244 13.6515C16.4268 13.6059 16.5185 13.5393 16.5935 13.456C17.399 12.5613 18.3361 11.7946 19.3727 11.1824C19.491 11.1123 19.5892 11.0129 19.6579 10.8938C19.7265 10.7747 19.7633 10.6399 19.7647 10.5024C19.781 9.18897 19.5143 7.88742 18.9829 6.68619C18.4514 5.48496 17.6676 4.4122 16.6847 3.54082M4.82553 19.5344C4.81303 19.395 4.82823 19.2545 4.87028 19.121C4.91232 18.9875 4.98037 18.8636 5.0705 18.7566C5.16063 18.6495 5.27106 18.5613 5.39542 18.4971C5.51979 18.4329 5.65564 18.3939 5.79513 18.3824C7.92537 18.2042 10.0576 18.7013 11.8894 19.8033C13.7212 20.9053 15.1594 22.5561 15.9999 24.5216C16.8402 22.5561 18.278 20.9051 20.1095 19.8028C21.9409 18.7006 24.073 18.203 26.2031 18.3808C26.7887 18.4288 27.2271 18.944 27.1727 19.5328C26.942 22.0651 25.773 24.4197 23.8953 26.1343C22.0176 27.8489 19.5667 28.7997 17.0239 28.8H16.2799C16.1848 28.7992 16.0902 28.7863 15.9983 28.7616C15.906 28.7865 15.8108 28.7994 15.7151 28.8H14.9711C12.4286 28.7993 9.97817 27.8484 8.10078 26.1338C6.22339 24.4192 5.05463 22.0648 4.82393 19.5328M15.9999 17.3216C15.1596 15.3558 13.7215 13.7046 11.8897 12.6023C10.058 11.5001 7.92556 11.0027 5.79513 11.1808C5.65564 11.1923 5.51979 11.2313 5.39542 11.2955C5.27106 11.3597 5.16063 11.4479 5.0705 11.555C4.98037 11.662 4.91232 11.7859 4.87028 11.9194C4.82823 12.0529 4.81303 12.1934 4.82553 12.3328C4.95166 13.7366 5.3685 15.0988 6.04953 16.3328C6.11824 16.457 6.21877 16.5608 6.3408 16.6333C6.46283 16.7058 6.60197 16.7446 6.74393 16.7456C8.36189 16.7598 9.95957 17.1072 11.4373 17.7662C12.915 18.4253 14.2411 19.3818 15.3327 20.576C15.4165 20.6675 15.5204 20.7382 15.6362 20.7827C15.7519 20.8271 15.8765 20.844 15.9999 20.832C16.1231 20.8437 16.2473 20.8267 16.3628 20.7823C16.4783 20.7379 16.5819 20.6673 16.6655 20.576C17.7572 19.3818 19.0833 18.4253 20.561 17.7662C22.0387 17.1072 23.6364 16.7598 25.2543 16.7456C25.3965 16.7445 25.5357 16.7054 25.6577 16.6326C25.7798 16.5598 25.8802 16.4557 25.9487 16.3312C26.6296 15.0977 27.0464 13.7361 27.1727 12.3328C27.1852 12.1934 27.17 12.0529 27.128 11.9194C27.0859 11.7859 27.0179 11.662 26.9278 11.555C26.8376 11.4479 26.7272 11.3597 26.6028 11.2955C26.4785 11.2313 26.3426 11.1923 26.2031 11.1808C24.073 11.003 21.9409 11.5006 20.1095 12.6028C18.278 13.7051 16.8402 15.3561 15.9999 17.3216Z" fill="#EFF7FF"/>
</svg>
