<svg width="32" height="32" viewBox="0 0 32 32" fill="none" xmlns="http://www.w3.org/2000/svg">
<path d="M7.99992 26.6667C6.15548 26.6667 4.58348 26.0164 3.28392 24.716C1.98436 23.4156 1.33414 21.8436 1.33325 20C1.33236 18.1564 1.98259 16.5844 3.28392 15.284C4.58525 13.9836 6.15725 13.3333 7.99992 13.3333C9.84259 13.3333 11.415 13.9836 12.7173 15.284C14.0195 16.5844 14.6693 18.1564 14.6666 20C14.6639 21.8436 14.0137 23.416 12.7159 24.7173C11.4181 26.0187 9.84614 26.6684 7.99992 26.6667ZM7.99992 22C7.44436 22 6.97236 21.8058 6.58392 21.4173C6.19548 21.0289 6.00081 20.5564 5.99992 20C5.99903 19.4436 6.1937 18.9716 6.58392 18.584C6.97414 18.1964 7.44614 18.0018 7.99992 18C8.5537 17.9982 9.02614 18.1929 9.41725 18.584C9.80836 18.9751 10.0026 19.4471 9.99992 20C9.99725 20.5529 9.80303 21.0253 9.41725 21.4173C9.03148 21.8093 8.55903 22.0036 7.99992 22ZM25.9999 26.6667C24.711 26.6667 23.611 26.2111 22.6999 25.3C21.7888 24.3889 21.3333 23.2889 21.3333 22C21.3333 20.7111 21.7888 19.6111 22.6999 18.7C23.611 17.7889 24.711 17.3333 25.9999 17.3333C27.2888 17.3333 28.3888 17.7889 29.2999 18.7C30.211 19.6111 30.6666 20.7111 30.6666 22C30.6666 23.2889 30.211 24.3889 29.2999 25.3C28.3888 26.2111 27.2888 26.6667 25.9999 26.6667ZM5.33325 12C4.95548 12 4.63903 11.872 4.38392 11.616C4.12881 11.36 4.00081 11.0436 3.99992 10.6667C3.99903 10.2898 4.12703 9.97333 4.38392 9.71733C4.64081 9.46133 4.95725 9.33333 5.33325 9.33333H9.33325C10.0666 9.33333 10.6946 9.59467 11.2173 10.1173C11.7399 10.64 12.0008 11.2676 11.9999 12H5.33325ZM7.99992 24C9.11103 24 10.0555 23.6111 10.8333 22.8333C11.611 22.0556 11.9999 21.1111 11.9999 20C11.9999 18.8889 11.611 17.9444 10.8333 17.1667C10.0555 16.3889 9.11103 16 7.99992 16C6.88881 16 5.94436 16.3889 5.16659 17.1667C4.38881 17.9444 3.99992 18.8889 3.99992 20C3.99992 21.1111 4.38881 22.0556 5.16659 22.8333C5.94436 23.6111 6.88881 24 7.99992 24ZM25.9999 24C26.5555 24 27.0279 23.8058 27.4173 23.4173C27.8066 23.0289 28.0008 22.5564 27.9999 22C27.999 21.4436 27.8048 20.9716 27.4173 20.584C27.0297 20.1964 26.5573 20.0018 25.9999 20C25.4426 19.9982 24.9706 20.1929 24.5839 20.584C24.1973 20.9751 24.0026 21.4471 23.9999 22C23.9973 22.5529 24.1919 23.0253 24.5839 23.4173C24.9759 23.8093 25.4479 24.0036 25.9999 24ZM15.8666 21.3333H20.0666C20.2888 19.7333 20.983 18.4556 22.1493 17.5C23.3155 16.5444 24.6324 16.0667 26.0999 16.0667C26.6555 16.0667 27.2057 16.1444 27.7506 16.3C28.2955 16.4556 28.823 16.6889 29.3333 17V10.6667C29.3333 9.93333 29.0724 9.30578 28.5506 8.784C28.0288 8.26222 27.4008 8.00089 26.6666 8H18.2666L16.8666 6.53333L18.2666 5.13333C18.3999 5 18.4666 4.84444 18.4666 4.66667C18.4666 4.48889 18.3999 4.33333 18.2666 4.2C18.1333 4.06667 17.9777 4 17.7999 4C17.6221 4 17.4666 4.06667 17.3333 4.2L13.5666 7.96667C13.4333 8.1 13.3724 8.26133 13.3839 8.45067C13.3955 8.64 13.4675 8.80089 13.5999 8.93333C13.7324 9.06578 13.8879 9.13244 14.0666 9.13333C14.2453 9.13422 14.4008 9.06756 14.5333 8.93333L15.9333 7.53333L17.3333 8.93333V12C17.3333 12.7333 17.0724 13.3613 16.5506 13.884C16.0288 14.4067 15.4008 14.6676 14.6666 14.6667H13.9333C14.5999 15.4 15.1057 16.2222 15.4506 17.1333C15.7955 18.0444 15.9675 19 15.9666 20C15.9666 20.2222 15.9608 20.4444 15.9493 20.6667C15.9377 20.8889 15.9101 21.1111 15.8666 21.3333Z" fill="#EFF7FF"/>
</svg>
